<mxfile host="Electron" agent="Mozilla/5.0 (Windows NT 10.0; Win64; x64) AppleWebKit/537.36 (KHTML, like Gecko) draw.io/27.0.5 Chrome/134.0.6998.205 Electron/35.3.0 Safari/537.36" version="27.0.5">
  <diagram name="第 1 页" id="MXc2gbcVjOa-krOygkRx">
    <mxGraphModel dx="3612" dy="1888" grid="1" gridSize="10" guides="1" tooltips="1" connect="1" arrows="1" fold="1" page="1" pageScale="1" pageWidth="827" pageHeight="1169" math="0" shadow="0">
      <root>
        <mxCell id="0" />
        <mxCell id="1" parent="0" />
        <mxCell id="6OiLot_ZlFKAWtfw2TLD-1" value="&lt;b&gt;&lt;font style=&quot;font-size: 48px;&quot;&gt;基于跳表的K-V存储引擎&lt;/font&gt;&lt;/b&gt;" style="rounded=0;whiteSpace=wrap;html=1;" vertex="1" parent="1">
          <mxGeometry x="-60" y="30" width="740" height="150" as="geometry" />
        </mxCell>
        <mxCell id="6OiLot_ZlFKAWtfw2TLD-6" value="forward数组用来存储不同等级索引的下一个节点" style="rounded=1;whiteSpace=wrap;html=1;" vertex="1" parent="1">
          <mxGeometry x="810" y="50" width="330" height="130" as="geometry" />
        </mxCell>
        <mxCell id="6OiLot_ZlFKAWtfw2TLD-13" value="" style="group" vertex="1" connectable="0" parent="1">
          <mxGeometry x="-800" y="390" width="410" height="335" as="geometry" />
        </mxCell>
        <mxCell id="6OiLot_ZlFKAWtfw2TLD-2" value="" style="rounded=0;whiteSpace=wrap;html=1;" vertex="1" parent="6OiLot_ZlFKAWtfw2TLD-13">
          <mxGeometry y="195" width="220" height="140" as="geometry" />
        </mxCell>
        <mxCell id="6OiLot_ZlFKAWtfw2TLD-3" value="跳表节点" style="rounded=1;whiteSpace=wrap;html=1;" vertex="1" parent="6OiLot_ZlFKAWtfw2TLD-13">
          <mxGeometry x="60" y="200" width="110" height="35" as="geometry" />
        </mxCell>
        <mxCell id="6OiLot_ZlFKAWtfw2TLD-4" value="K-V" style="rounded=1;whiteSpace=wrap;html=1;" vertex="1" parent="6OiLot_ZlFKAWtfw2TLD-13">
          <mxGeometry x="65" y="250" width="100" height="30" as="geometry" />
        </mxCell>
        <mxCell id="6OiLot_ZlFKAWtfw2TLD-5" value="" style="rounded=0;whiteSpace=wrap;html=1;" vertex="1" parent="6OiLot_ZlFKAWtfw2TLD-13">
          <mxGeometry x="220" y="55" width="190" height="280" as="geometry" />
        </mxCell>
        <mxCell id="6OiLot_ZlFKAWtfw2TLD-7" value="node*" style="rounded=0;whiteSpace=wrap;html=1;" vertex="1" parent="6OiLot_ZlFKAWtfw2TLD-13">
          <mxGeometry x="220" y="55" width="190" height="65" as="geometry" />
        </mxCell>
        <mxCell id="6OiLot_ZlFKAWtfw2TLD-8" value="node*" style="rounded=0;whiteSpace=wrap;html=1;" vertex="1" parent="6OiLot_ZlFKAWtfw2TLD-13">
          <mxGeometry x="220" y="120" width="190" height="60" as="geometry" />
        </mxCell>
        <mxCell id="6OiLot_ZlFKAWtfw2TLD-9" value="node*" style="rounded=0;whiteSpace=wrap;html=1;" vertex="1" parent="6OiLot_ZlFKAWtfw2TLD-13">
          <mxGeometry x="220" y="180" width="190" height="60" as="geometry" />
        </mxCell>
        <mxCell id="6OiLot_ZlFKAWtfw2TLD-10" value="node*" style="rounded=0;whiteSpace=wrap;html=1;" vertex="1" parent="6OiLot_ZlFKAWtfw2TLD-13">
          <mxGeometry x="220" y="275" width="190" height="60" as="geometry" />
        </mxCell>
        <mxCell id="6OiLot_ZlFKAWtfw2TLD-12" value="forward数组" style="rounded=1;whiteSpace=wrap;html=1;" vertex="1" parent="6OiLot_ZlFKAWtfw2TLD-13">
          <mxGeometry x="257.5" width="115" height="40" as="geometry" />
        </mxCell>
        <mxCell id="6OiLot_ZlFKAWtfw2TLD-24" value="" style="group" vertex="1" connectable="0" parent="1">
          <mxGeometry x="330" y="400" width="410" height="335" as="geometry" />
        </mxCell>
        <mxCell id="6OiLot_ZlFKAWtfw2TLD-25" value="" style="rounded=0;whiteSpace=wrap;html=1;" vertex="1" parent="6OiLot_ZlFKAWtfw2TLD-24">
          <mxGeometry y="195" width="220" height="140" as="geometry" />
        </mxCell>
        <mxCell id="6OiLot_ZlFKAWtfw2TLD-26" value="跳表节点" style="rounded=1;whiteSpace=wrap;html=1;" vertex="1" parent="6OiLot_ZlFKAWtfw2TLD-24">
          <mxGeometry x="60" y="200" width="110" height="35" as="geometry" />
        </mxCell>
        <mxCell id="6OiLot_ZlFKAWtfw2TLD-27" value="K-V" style="rounded=1;whiteSpace=wrap;html=1;" vertex="1" parent="6OiLot_ZlFKAWtfw2TLD-24">
          <mxGeometry x="65" y="250" width="100" height="30" as="geometry" />
        </mxCell>
        <mxCell id="6OiLot_ZlFKAWtfw2TLD-28" value="" style="rounded=0;whiteSpace=wrap;html=1;" vertex="1" parent="6OiLot_ZlFKAWtfw2TLD-24">
          <mxGeometry x="220" y="55" width="190" height="280" as="geometry" />
        </mxCell>
        <mxCell id="6OiLot_ZlFKAWtfw2TLD-29" value="node*" style="rounded=0;whiteSpace=wrap;html=1;" vertex="1" parent="6OiLot_ZlFKAWtfw2TLD-24">
          <mxGeometry x="220" y="55" width="190" height="65" as="geometry" />
        </mxCell>
        <mxCell id="6OiLot_ZlFKAWtfw2TLD-30" value="node*" style="rounded=0;whiteSpace=wrap;html=1;" vertex="1" parent="6OiLot_ZlFKAWtfw2TLD-24">
          <mxGeometry x="220" y="120" width="190" height="60" as="geometry" />
        </mxCell>
        <mxCell id="6OiLot_ZlFKAWtfw2TLD-31" value="node*" style="rounded=0;whiteSpace=wrap;html=1;" vertex="1" parent="6OiLot_ZlFKAWtfw2TLD-24">
          <mxGeometry x="220" y="180" width="190" height="60" as="geometry" />
        </mxCell>
        <mxCell id="6OiLot_ZlFKAWtfw2TLD-32" value="node*" style="rounded=0;whiteSpace=wrap;html=1;" vertex="1" parent="6OiLot_ZlFKAWtfw2TLD-24">
          <mxGeometry x="220" y="275" width="190" height="60" as="geometry" />
        </mxCell>
        <mxCell id="6OiLot_ZlFKAWtfw2TLD-33" value="forward数组" style="rounded=1;whiteSpace=wrap;html=1;" vertex="1" parent="6OiLot_ZlFKAWtfw2TLD-24">
          <mxGeometry x="257.5" width="115" height="40" as="geometry" />
        </mxCell>
        <mxCell id="6OiLot_ZlFKAWtfw2TLD-44" value="" style="group" vertex="1" connectable="0" parent="1">
          <mxGeometry x="1690" y="400" width="410" height="335" as="geometry" />
        </mxCell>
        <mxCell id="6OiLot_ZlFKAWtfw2TLD-45" value="" style="rounded=0;whiteSpace=wrap;html=1;" vertex="1" parent="6OiLot_ZlFKAWtfw2TLD-44">
          <mxGeometry y="195" width="220" height="140" as="geometry" />
        </mxCell>
        <mxCell id="6OiLot_ZlFKAWtfw2TLD-46" value="跳表节点" style="rounded=1;whiteSpace=wrap;html=1;" vertex="1" parent="6OiLot_ZlFKAWtfw2TLD-44">
          <mxGeometry x="60" y="200" width="110" height="35" as="geometry" />
        </mxCell>
        <mxCell id="6OiLot_ZlFKAWtfw2TLD-47" value="K-V" style="rounded=1;whiteSpace=wrap;html=1;" vertex="1" parent="6OiLot_ZlFKAWtfw2TLD-44">
          <mxGeometry x="65" y="250" width="100" height="30" as="geometry" />
        </mxCell>
        <mxCell id="6OiLot_ZlFKAWtfw2TLD-48" value="" style="rounded=0;whiteSpace=wrap;html=1;" vertex="1" parent="6OiLot_ZlFKAWtfw2TLD-44">
          <mxGeometry x="220" y="55" width="190" height="280" as="geometry" />
        </mxCell>
        <mxCell id="6OiLot_ZlFKAWtfw2TLD-49" value="node*" style="rounded=0;whiteSpace=wrap;html=1;" vertex="1" parent="6OiLot_ZlFKAWtfw2TLD-44">
          <mxGeometry x="220" y="55" width="190" height="65" as="geometry" />
        </mxCell>
        <mxCell id="6OiLot_ZlFKAWtfw2TLD-50" value="node*" style="rounded=0;whiteSpace=wrap;html=1;" vertex="1" parent="6OiLot_ZlFKAWtfw2TLD-44">
          <mxGeometry x="220" y="120" width="190" height="60" as="geometry" />
        </mxCell>
        <mxCell id="6OiLot_ZlFKAWtfw2TLD-51" value="node*" style="rounded=0;whiteSpace=wrap;html=1;" vertex="1" parent="6OiLot_ZlFKAWtfw2TLD-44">
          <mxGeometry x="220" y="180" width="190" height="60" as="geometry" />
        </mxCell>
        <mxCell id="6OiLot_ZlFKAWtfw2TLD-52" value="node*" style="rounded=0;whiteSpace=wrap;html=1;" vertex="1" parent="6OiLot_ZlFKAWtfw2TLD-44">
          <mxGeometry x="220" y="275" width="190" height="60" as="geometry" />
        </mxCell>
        <mxCell id="6OiLot_ZlFKAWtfw2TLD-53" value="forward数组" style="rounded=1;whiteSpace=wrap;html=1;" vertex="1" parent="6OiLot_ZlFKAWtfw2TLD-44">
          <mxGeometry x="257.5" width="115" height="40" as="geometry" />
        </mxCell>
        <mxCell id="6OiLot_ZlFKAWtfw2TLD-59" value="" style="endArrow=classic;html=1;rounded=0;entryX=0;entryY=0.75;entryDx=0;entryDy=0;exitX=1;exitY=0.5;exitDx=0;exitDy=0;" edge="1" parent="1" source="6OiLot_ZlFKAWtfw2TLD-10">
          <mxGeometry width="50" height="50" relative="1" as="geometry">
            <mxPoint x="-380" y="700" as="sourcePoint" />
            <mxPoint x="-240" y="690" as="targetPoint" />
          </mxGeometry>
        </mxCell>
        <mxCell id="6OiLot_ZlFKAWtfw2TLD-61" value="0级索引" style="edgeLabel;html=1;align=center;verticalAlign=middle;resizable=0;points=[];" vertex="1" connectable="0" parent="6OiLot_ZlFKAWtfw2TLD-59">
          <mxGeometry x="-0.1039" y="-1" relative="1" as="geometry">
            <mxPoint as="offset" />
          </mxGeometry>
        </mxCell>
        <mxCell id="6OiLot_ZlFKAWtfw2TLD-62" value="" style="endArrow=classic;html=1;rounded=0;entryX=0;entryY=0.75;entryDx=0;entryDy=0;exitX=1;exitY=0.5;exitDx=0;exitDy=0;" edge="1" parent="1" source="6OiLot_ZlFKAWtfw2TLD-71">
          <mxGeometry width="50" height="50" relative="1" as="geometry">
            <mxPoint x="180" y="695" as="sourcePoint" />
            <mxPoint x="330" y="690" as="targetPoint" />
          </mxGeometry>
        </mxCell>
        <mxCell id="6OiLot_ZlFKAWtfw2TLD-63" value="0级索引" style="edgeLabel;html=1;align=center;verticalAlign=middle;resizable=0;points=[];" vertex="1" connectable="0" parent="6OiLot_ZlFKAWtfw2TLD-62">
          <mxGeometry x="-0.1039" y="-1" relative="1" as="geometry">
            <mxPoint as="offset" />
          </mxGeometry>
        </mxCell>
        <mxCell id="6OiLot_ZlFKAWtfw2TLD-64" value="" style="endArrow=classic;html=1;rounded=0;exitX=1;exitY=0.5;exitDx=0;exitDy=0;" edge="1" parent="1">
          <mxGeometry width="50" height="50" relative="1" as="geometry">
            <mxPoint x="740" y="705" as="sourcePoint" />
            <mxPoint x="950" y="705" as="targetPoint" />
          </mxGeometry>
        </mxCell>
        <mxCell id="6OiLot_ZlFKAWtfw2TLD-65" value="0级索引" style="edgeLabel;html=1;align=center;verticalAlign=middle;resizable=0;points=[];" vertex="1" connectable="0" parent="6OiLot_ZlFKAWtfw2TLD-64">
          <mxGeometry x="-0.1039" y="-1" relative="1" as="geometry">
            <mxPoint as="offset" />
          </mxGeometry>
        </mxCell>
        <mxCell id="6OiLot_ZlFKAWtfw2TLD-66" value="" style="endArrow=classic;html=1;rounded=0;exitX=1;exitY=0.5;exitDx=0;exitDy=0;" edge="1" parent="1" source="6OiLot_ZlFKAWtfw2TLD-90">
          <mxGeometry width="50" height="50" relative="1" as="geometry">
            <mxPoint x="1370" y="700" as="sourcePoint" />
            <mxPoint x="1690" y="700" as="targetPoint" />
          </mxGeometry>
        </mxCell>
        <mxCell id="6OiLot_ZlFKAWtfw2TLD-67" value="0级索引" style="edgeLabel;html=1;align=center;verticalAlign=middle;resizable=0;points=[];" vertex="1" connectable="0" parent="6OiLot_ZlFKAWtfw2TLD-66">
          <mxGeometry x="-0.1039" y="-1" relative="1" as="geometry">
            <mxPoint as="offset" />
          </mxGeometry>
        </mxCell>
        <mxCell id="6OiLot_ZlFKAWtfw2TLD-68" value="" style="endArrow=classic;html=1;rounded=0;exitX=1;exitY=0.5;exitDx=0;exitDy=0;" edge="1" parent="1">
          <mxGeometry width="50" height="50" relative="1" as="geometry">
            <mxPoint x="-390" y="480" as="sourcePoint" />
            <mxPoint x="550" y="490" as="targetPoint" />
            <Array as="points">
              <mxPoint x="80" y="470" />
            </Array>
          </mxGeometry>
        </mxCell>
        <mxCell id="6OiLot_ZlFKAWtfw2TLD-69" value="k级索引" style="edgeLabel;html=1;align=center;verticalAlign=middle;resizable=0;points=[];" vertex="1" connectable="0" parent="6OiLot_ZlFKAWtfw2TLD-68">
          <mxGeometry x="-0.1039" y="-1" relative="1" as="geometry">
            <mxPoint as="offset" />
          </mxGeometry>
        </mxCell>
        <mxCell id="6OiLot_ZlFKAWtfw2TLD-71" value="" style="rounded=0;whiteSpace=wrap;html=1;" vertex="1" parent="1">
          <mxGeometry x="-240" y="650" width="270" height="80" as="geometry" />
        </mxCell>
        <mxCell id="6OiLot_ZlFKAWtfw2TLD-72" value="跳表节点" style="rounded=0;whiteSpace=wrap;html=1;" vertex="1" parent="1">
          <mxGeometry x="-160" y="650" width="140" height="30" as="geometry" />
        </mxCell>
        <mxCell id="6OiLot_ZlFKAWtfw2TLD-83" value="k-v" style="rounded=1;whiteSpace=wrap;html=1;" vertex="1" parent="1">
          <mxGeometry x="-155" y="690" width="130" height="30" as="geometry" />
        </mxCell>
        <mxCell id="6OiLot_ZlFKAWtfw2TLD-88" value="" style="group" vertex="1" connectable="0" parent="1">
          <mxGeometry x="950" y="578" width="390" height="162" as="geometry" />
        </mxCell>
        <mxCell id="6OiLot_ZlFKAWtfw2TLD-84" value="" style="rounded=0;whiteSpace=wrap;html=1;" vertex="1" parent="6OiLot_ZlFKAWtfw2TLD-88">
          <mxGeometry y="62" width="270" height="100" as="geometry" />
        </mxCell>
        <mxCell id="6OiLot_ZlFKAWtfw2TLD-85" value="跳表节点" style="rounded=0;whiteSpace=wrap;html=1;" vertex="1" parent="6OiLot_ZlFKAWtfw2TLD-88">
          <mxGeometry x="75" y="72" width="135" height="30" as="geometry" />
        </mxCell>
        <mxCell id="6OiLot_ZlFKAWtfw2TLD-86" value="K-V" style="rounded=0;whiteSpace=wrap;html=1;" vertex="1" parent="6OiLot_ZlFKAWtfw2TLD-88">
          <mxGeometry x="69" y="112" width="147" height="30" as="geometry" />
        </mxCell>
        <mxCell id="6OiLot_ZlFKAWtfw2TLD-87" value="" style="rounded=0;whiteSpace=wrap;html=1;" vertex="1" parent="6OiLot_ZlFKAWtfw2TLD-88">
          <mxGeometry x="270" width="120" height="162" as="geometry" />
        </mxCell>
        <mxCell id="6OiLot_ZlFKAWtfw2TLD-89" value="node*" style="rounded=0;whiteSpace=wrap;html=1;" vertex="1" parent="6OiLot_ZlFKAWtfw2TLD-88">
          <mxGeometry x="270" width="120" height="48" as="geometry" />
        </mxCell>
        <mxCell id="6OiLot_ZlFKAWtfw2TLD-90" value="node*" style="rounded=0;whiteSpace=wrap;html=1;" vertex="1" parent="6OiLot_ZlFKAWtfw2TLD-88">
          <mxGeometry x="270" y="120" width="120" height="42" as="geometry" />
        </mxCell>
        <mxCell id="6OiLot_ZlFKAWtfw2TLD-91" value="node*" style="rounded=0;whiteSpace=wrap;html=1;" vertex="1" parent="6OiLot_ZlFKAWtfw2TLD-88">
          <mxGeometry x="270" y="78" width="120" height="42" as="geometry" />
        </mxCell>
        <mxCell id="6OiLot_ZlFKAWtfw2TLD-94" value="" style="endArrow=classic;html=1;rounded=0;exitX=1;exitY=0.5;exitDx=0;exitDy=0;entryX=0;entryY=0.5;entryDx=0;entryDy=0;" edge="1" parent="6OiLot_ZlFKAWtfw2TLD-88" target="6OiLot_ZlFKAWtfw2TLD-89">
          <mxGeometry width="50" height="50" relative="1" as="geometry">
            <mxPoint x="-220" y="32" as="sourcePoint" />
            <mxPoint x="720" y="42" as="targetPoint" />
            <Array as="points" />
          </mxGeometry>
        </mxCell>
        <mxCell id="6OiLot_ZlFKAWtfw2TLD-95" value="k-2级索引" style="edgeLabel;html=1;align=center;verticalAlign=middle;resizable=0;points=[];" vertex="1" connectable="0" parent="6OiLot_ZlFKAWtfw2TLD-94">
          <mxGeometry x="-0.1039" y="-1" relative="1" as="geometry">
            <mxPoint as="offset" />
          </mxGeometry>
        </mxCell>
        <mxCell id="6OiLot_ZlFKAWtfw2TLD-92" value="" style="endArrow=classic;html=1;rounded=0;exitX=1;exitY=0.5;exitDx=0;exitDy=0;" edge="1" parent="1">
          <mxGeometry width="50" height="50" relative="1" as="geometry">
            <mxPoint x="-390" y="595" as="sourcePoint" />
            <mxPoint x="550" y="605" as="targetPoint" />
            <Array as="points" />
          </mxGeometry>
        </mxCell>
        <mxCell id="6OiLot_ZlFKAWtfw2TLD-93" value="k-2级索引" style="edgeLabel;html=1;align=center;verticalAlign=middle;resizable=0;points=[];" vertex="1" connectable="0" parent="6OiLot_ZlFKAWtfw2TLD-92">
          <mxGeometry x="-0.1039" y="-1" relative="1" as="geometry">
            <mxPoint as="offset" />
          </mxGeometry>
        </mxCell>
        <mxCell id="6OiLot_ZlFKAWtfw2TLD-96" value="&lt;font style=&quot;font-size: 24px;&quot;&gt;单链表的缺点的就想要进行增删改查必须从左往右进行遍历，时间复杂度为O（n）,要想降低时间复杂度，就要采用空间换时间的方式，通过多级索引的方式，可以实现时间复杂度为O（logn）,当向跳表中添加一个结点时，索引也会需要进行改变，那么要改变哪些层级的索引呢，本代码采用一种随机数的方式，向第一级索引改变的概率时1/2,向第二级索引改变的概率是1/4，依次类推，可以发现，这样实现的索引有点类似于二叉树，第K级索引中结点的个数很大概率是第k-1级索引的1/2。这样就可以实现增删改查的时间复杂度为O(logn)&lt;/font&gt;" style="rounded=0;whiteSpace=wrap;html=1;align=left;" vertex="1" parent="1">
          <mxGeometry x="-80" y="900" width="1500" height="150" as="geometry" />
        </mxCell>
      </root>
    </mxGraphModel>
  </diagram>
</mxfile>
